<svg xmlns="http://www.w3.org/2000/svg" width="52.624" height="54.143" viewBox="0 0 52.624 54.143"><g transform="translate(0.044 0.041)"><g transform="translate(1 1)"><path d="M1.038,5.323S-1.093,37.984,26.409,53.1c0,0,25.908-11.2,25.153-47.779,0,0-9.328,3.956-14.828-4.323A12.534,12.534,0,0,1,26.409,6.436,12.76,12.76,0,0,1,15.99,1S11.6,9.279,1.038,5.323Z" transform="translate(-1 -1)" fill="none" stroke="#fff" stroke-linecap="round" stroke-linejoin="round" stroke-width="2"/><path d="M53.32,34.94C50.464,60.733,32.43,68.475,32.43,68.475c-18.8-11.2-20.89-33.535-20.89-33.535L32.315,53.588Z" transform="translate(-7.046 -20.47)" fill="#fff"/><path d="M10.65,15.569,31.9,35.181,53.138,15.569S45.5,18.238,41.107,11.92c0,0-2.132,4.229-9.1,4.229s-9.17-4.229-9.17-4.229S19.846,17.637,10.65,15.569Z" transform="translate(-6.536 -7.264)" fill="#fff"/></g></g></svg>