<svg xmlns="http://www.w3.org/2000/svg" viewBox="0 0 100 100"><defs><style>.cls-1{fill:#fff;}</style></defs><title>icon-natacion</title><g id="Camada_2" data-name="Camada 2"><g id="Diseño_01" data-name="Diseño 01"><path class="cls-1" d="M83.2,58.58a5.25,5.25,0,0,0-2.51-5c-8.77-6.26-18.33-5.86-28.07-3.14a7.17,7.17,0,0,1-5.14,0,13.43,13.43,0,0,0-4.36-1.26,98.92,98.92,0,0,0-11.8-.21,20.83,20.83,0,0,0-11.49,4.23c-2,1.49-3.39,3.2-3.1,5.9a11.55,11.55,0,0,1-.15,3.42c-.45,2.37.61,4.06,2.26,5.5.95.84,2,1.56,2.78,2.16a27.65,27.65,0,0,0,20.47,2.1,2.22,2.22,0,0,0,1.26-1.5c.52-3.78,2.14-5.21,6.31-5.34s6.23,1.41,6.9,5.16c.11.59.56,1.47,1,1.58C65.9,74.34,73.84,73.8,81,68.37a5.61,5.61,0,0,0,2.43-5.8A15.68,15.68,0,0,1,83.2,58.58Z"/><path class="cls-1" d="M50,0a50,50,0,1,0,50,50A50,50,0,0,0,50,0ZM6.22,34.34c4.37-4.18,9.91-6.23,15.66-7.54,19.83-4.53,39.63-4.55,59.28,1.08,5.44,1.56,10.43,4,14.16,8.56a4,4,0,0,1,.79,4.19c-1.24,3.73-3.09,6.3-5.75,7.48-4.42-8.19-12.22-11.18-20.63-12.76a111,111,0,0,0-40.06,0,44,44,0,0,0-7,2C16.17,39.6,13.06,42.1,9.19,47.93a7.77,7.77,0,0,1-4.54-4.7C2.51,38.33,2.1,38.28,6.22,34.34ZM88.54,65.43c-1.64,1.49-3.24,3-4.86,4.55a23.42,23.42,0,0,1-11.81,5.87,31.57,31.57,0,0,1-15.47-.74,3.68,3.68,0,0,1-2.9-3.51,4,4,0,0,0-6.28-2.45,3.21,3.21,0,0,0-.67,2c-.23,2.72-.62,3.28-3.23,4-8.15,2.25-16,1.66-23.42-2.62a10.11,10.11,0,0,1-2.3-1.69c-4-4.2-9-7.5-12.11-12.6A24.15,24.15,0,0,1,1.65,43.38a79.67,79.67,0,0,0,4.49,7.1,8.13,8.13,0,0,0,6.42,2.89,5.53,5.53,0,0,0,4.29-1.56c4.37-4.13,9.8-5.87,15.67-6.14,5.08-.23,10.25-.54,15.09,1.4,1.9.76,3.34.33,5.15-.08,10.53-2.35,20.89-2.72,30,4.43,1.65,1.29,3,2.53,5.35,2.18A9.11,9.11,0,0,0,94.59,50c1.41-2,2.49-4.25,3.7-6.37a20.69,20.69,0,0,1-1.22,9.57A30.16,30.16,0,0,1,88.54,65.43Z"/><path class="cls-1" d="M35.67,32.43a98.34,98.34,0,0,1,10.26-.76c6.41.09,12.81.56,19.22.78A11.56,11.56,0,0,0,68,32c1.29-2.12.42-4-1.5-4.24a121.33,121.33,0,0,0-31.57-.15c-1.93.26-2.85,1.37-2.6,2.86S33.79,32.59,35.67,32.43Z"/></g></g></svg>