<svg xmlns="http://www.w3.org/2000/svg" viewBox="0 0 100 100"><defs><style>.cls-1{fill:#fff;}</style></defs><title>icon-futsal</title><g id="Camada_2" data-name="Camada 2"><g id="Diseño_01" data-name="Diseño 01"><path class="cls-1" d="M100,49.31a7,7,0,0,1-2,1.49,1.17,1.17,0,0,1-1.69-.51c-1-1.52-2-3-3-4.46-1.56-2.31-3.08-4.64-4.71-6.89a4.82,4.82,0,0,1-.84-3.39c.14-2.07.29-4.14.43-6.21.12-1.84.24-3.68.38-5.52a.32.32,0,0,1,.17-.25c.84-.31,1.68-.61,2.53-.9a.66.66,0,0,1,.87.33,56.47,56.47,0,0,1,3.31,6.06,48.22,48.22,0,0,1,3.89,12.73c.3,1.87.42,3.77.61,5.65l.06.5Z"/><path class="cls-1" d="M0,50.69a12.14,12.14,0,0,1,.85,1.18c.73,1.3,1.46,2.6,2.1,3.94A17.14,17.14,0,0,1,3.64,58q2.13,6.5,4.29,13c.33,1,.68,2,1,3a.45.45,0,0,1,0,.27A8.68,8.68,0,0,1,7.7,76.7c-.49-.83-1-1.61-1.41-2.41A49.36,49.36,0,0,1,1.12,60.54,48,48,0,0,1,.06,52.27l-.06-1Z"/><path class="cls-1" d="M49.75,65.45c-3.2,0-6.41,0-9.61,0a2.37,2.37,0,0,1-2-1.08,4.8,4.8,0,0,1-.71-1.62c-.53-1.68-1.08-3.35-1.63-5C34.84,54.87,33.86,52,33,49.13c-.49-1.57-.86-3.18-1.29-4.77-.05-.18,0-.26.15-.36L36,40.64l8.52-6.73c1.47-1.15,3-2.29,4.44-3.4a1,1,0,0,1,1.39,0c5.48,4,11,8.05,16.47,12.08a5.6,5.6,0,0,1,1.55,1.9.64.64,0,0,1,0,.47c-.9,2.75-1.83,5.49-2.74,8.24l-3.3,10.07c-.05.14-.1.28-.14.41a2.44,2.44,0,0,1-2.32,1.8c-1,0-1.9,0-2.84,0H49.75Z"/><path class="cls-1" d="M51,20.07V13.91A1.91,1.91,0,0,1,52.4,12c3.23-.89,6.45-1.8,9.68-2.66,1.55-.42,3.12-.74,4.68-1.11a.54.54,0,0,1,.49.09c4.21,3.09,8.44,6.17,12.65,9.25l5.48,4a.71.71,0,0,1,.25.34A6.33,6.33,0,0,1,86,24.66c-.14,1.56-.23,3.14-.33,4.71q-.25,3.84-.52,7.67a1,1,0,0,1-.25.54,5.32,5.32,0,0,1-2.66,1.55c-2.67.69-5.32,1.46-8,2.19-1,.29-2.09.54-3.14.82a.94.94,0,0,1-.86-.22c-.77-.61-1.57-1.18-2.36-1.76s-1.52-1.07-2.25-1.64c-1.09-.87-2.26-1.62-3.38-2.46s-2.3-1.69-3.45-2.54L55.35,31c-1.07-.78-2.14-1.56-3.2-2.35a2.63,2.63,0,0,1-1.1-2.14c0-2.15,0-4.3,0-6.45Z"/><path class="cls-1" d="M49.43,68c3.3,0,6.59,0,9.89,0a3.52,3.52,0,0,1,2.17.77,12.51,12.51,0,0,1,3.06,3.14c1.1,1.69,2.25,3.34,3.34,5,.72,1.1,1.36,2.25,2,3.36a.64.64,0,0,1,.06.65,11.53,11.53,0,0,1-.89,1.53c-2,2.66-4,5.3-6,8-.91,1.21-1.9,2.35-2.92,3.46a1.66,1.66,0,0,1-1.4.58c-3-.09-6-.12-9-.17-.73,0-1.45-.07-2.18-.08-2.89,0-5.77-.09-8.66-.08a1.61,1.61,0,0,1-1.59-.85c-2.57-4-5.2-8-7.81-12a1.88,1.88,0,0,1-.19-1.59,3.16,3.16,0,0,1,.49-1.07c1.59-2.12,3.2-4.22,4.81-6.33,1-1.25,1.92-2.49,2.88-3.74a1,1,0,0,1,.87-.45c2.22,0,4.44-.07,6.66-.1Z"/><path class="cls-1" d="M28.6,42.28a7.21,7.21,0,0,1-2.21-.42l-8.15-2.43c-.66-.2-1.34-.38-2-.61-.43-.15-.65-.57-.94-.9A1.72,1.72,0,0,1,15,36.5q.46-5.8.91-11.6c.07-.87,0-1.76.15-2.62A17.35,17.35,0,0,1,16.59,20a1.69,1.69,0,0,1,.66-.88,102.09,102.09,0,0,1,8.65-6l7.56-4.73a1.05,1.05,0,0,1,.43-.15,5.44,5.44,0,0,1,2.43.24c2.55.81,5.13,1.54,7.68,2.34,1,.3,1.92.68,2.86,1.07a3.35,3.35,0,0,1,1,.69,2.12,2.12,0,0,1,.61,1.65c0,1.73,0,3.46,0,5.19,0,2.38,0,4.75.05,7.13a2,2,0,0,1-.86,1.7C45.9,29.65,44.18,31,42.44,32.4L30.25,42a1.16,1.16,0,0,1-.5.21C29.37,42.22,29,42.24,28.6,42.28Z"/><path class="cls-1" d="M95.32,54.3a19.12,19.12,0,0,1-.47,1.88c-1,2.75-2,5.49-3,8.23L88.4,74.06a1.09,1.09,0,0,1-.6.63,15.08,15.08,0,0,1-2.58,1c-3.52,1-7,2.08-10.55,3.11a3.31,3.31,0,0,1-3.21-1.16c-.48-.71-.93-1.44-1.41-2.14-1.21-1.8-2.45-3.58-3.67-5.37l-2.22-3.25a.61.61,0,0,1-.09-.61l2.49-7.5c1-3,2-6,3-9a29.42,29.42,0,0,1,1.15-3,4.63,4.63,0,0,1,2.14-2.33A7.72,7.72,0,0,1,74.17,44L85,41a1,1,0,0,1,.56,0,7,7,0,0,1,3.18,2.55c1.37,2,2.67,4,4,6,.77,1.22,1.47,2.48,2.19,3.72C95,53.63,95.17,54,95.32,54.3Z"/><path class="cls-1" d="M25.07,78.43A7.37,7.37,0,0,1,24,78.15c-1.15-.46-2.29-1-3.45-1.45l-8.35-3.35L11.38,73a.31.31,0,0,1-.16-.16l-2.6-7.17c-1-2.76-2-5.53-3-8.28a2.94,2.94,0,0,1,0-1.71,17.19,17.19,0,0,1,1.64-4.31c1.6-3.2,3.5-6.24,5.32-9.31l.33-.57a1.16,1.16,0,0,1,1.61-.61l6.47,1.93,6.71,2a2.78,2.78,0,0,1,1.9,1.92c1.08,3.28,2.13,6.58,3.2,9.87.91,2.8,1.85,5.6,2.76,8.4a1.38,1.38,0,0,1,0,.7A7.73,7.73,0,0,1,34,69c-2,2.59-3.95,5.15-5.89,7.75A4.09,4.09,0,0,1,25.07,78.43Z"/><path class="cls-1" d="M3.53,52.24c-.23-.35-.44-.67-.64-1A18.82,18.82,0,0,1,.3,46a3.62,3.62,0,0,1,0-1.23,49.79,49.79,0,0,1,9.59-24.6.49.49,0,0,1,.24-.17,4.79,4.79,0,0,1,2.59.41,2.71,2.71,0,0,1,.88.77,1.24,1.24,0,0,1,.21.78c-.11,1.33-.25,2.66-.4,4-.3,2.78-.6,5.56-.92,8.33-.1.83-.27,1.65-.41,2.47a11.55,11.55,0,0,1-1.64,4C8.16,44.45,5.94,48.23,3.7,52,3.65,52.07,3.6,52.13,3.53,52.24Z"/><path class="cls-1" d="M62.88,95.48a1.72,1.72,0,0,1,.49-1.32c2.62-3.41,5.2-6.84,7.82-10.24a7.72,7.72,0,0,1,4.1-2.71c2.82-.82,5.64-1.67,8.45-2.5l2.91-.86a.38.38,0,0,1,.31.08c.58.71,1.15,1.43,1.72,2.15A1.66,1.66,0,0,1,89,81.2a.65.65,0,0,1-.16.37,50.7,50.7,0,0,1-7.74,7.62,50.15,50.15,0,0,1-10.6,6.45A51.12,51.12,0,0,1,64.13,98a.52.52,0,0,1-.58-.15A2.76,2.76,0,0,1,62.89,96,4,4,0,0,1,62.88,95.48Z"/><path class="cls-1" d="M10.14,79.45a6.09,6.09,0,0,1,.64-2.92.72.72,0,0,1,.87-.37A66.58,66.58,0,0,1,18,78.41c2,.83,3.94,1.6,5.9,2.44a10.8,10.8,0,0,1,4.26,3c.75.91,1.35,1.93,2,2.9l5.21,7.69a.51.51,0,0,1,0,.66c-.41.64-.79,1.3-1.17,2-.17.3-.39.32-.71.21A50.32,50.32,0,0,1,10.39,80.52,1.76,1.76,0,0,1,10.14,79.45Z"/><path class="cls-1" d="M35.45,5.66c.11-.88.22-1.72.33-2.57a5.16,5.16,0,0,0,.08-.78c0-.27.13-.34.36-.4A52.56,52.56,0,0,1,46,.17a50.65,50.65,0,0,1,7.79,0,49,49,0,0,1,9.47,1.65c.83.23,1.64.5,2.46.73a.36.36,0,0,1,.31.44l-.27,2.21,0,.15c0,.59,0,.59-.64.74L51.23,9.69c-.26.07-.51.19-.77.24a1.58,1.58,0,0,1-.65,0,4.23,4.23,0,0,1-.66-.22,4.67,4.67,0,0,1-.57-.1c-1.2-.44-2.44-.73-3.66-1.1L35.73,5.76Z"/><path class="cls-1" d="M11.79,17.75a49.83,49.83,0,0,1,9.09-8.4A49.17,49.17,0,0,1,33.3,2.86a5,5,0,0,1-.39,2.37.72.72,0,0,1-.25.27c-5.07,3.34-10,6.91-14.88,10.48-1.09.79-2.19,1.57-3.27,2.37a.54.54,0,0,1-.54.1C13.26,18.21,12.55,18,11.79,17.75Z"/><path class="cls-1" d="M68.5,3.52A50,50,0,0,1,90.09,20.1c-.53.18-1,.37-1.55.52a.56.56,0,0,1-.34-.13L86,18.79c-2.82-2.13-5.65-4.28-8.48-6.4S71.66,8,68.9,5.65a.85.85,0,0,1-.3-.51C68.54,4.63,68.53,4.11,68.5,3.52Z"/><path class="cls-1" d="M100,52.59a50.16,50.16,0,0,1-8.62,25.59c-.34-.41-.65-.77-.94-1.15a.58.58,0,0,1,0-.37l1.71-4.93L96,60.54c.76-2.18,1.51-4.37,2.28-6.55a1.08,1.08,0,0,1,.34-.45C99,53.22,99.46,52.94,100,52.59Z"/><path class="cls-1" d="M59.6,99.09c-.74.12-1.42.25-2.09.35a47.07,47.07,0,0,1-8.3.54c-1.6,0-3.21-.12-4.8-.3a48.19,48.19,0,0,1-6.73-1.21.35.35,0,0,1-.31-.4,2.83,2.83,0,0,1,.49-1.52c0-.08.21-.11.32-.11l6.26.21c.61,0,1.23.11,1.85.13,1.88,0,3.77.07,5.65.12,2.39.07,4.77.16,7.16.25a.32.32,0,0,1,.25.18C59.45,97.91,59.52,98.48,59.6,99.09Z"/></g></g></svg>