<svg xmlns="http://www.w3.org/2000/svg" viewBox="0 0 239.48 239.48"><defs><style>.cls-1{fill:#fff;}</style></defs><title>icon-qrcode</title><g id="Camada_2" data-name="Camada 2"><g id="Diseño_01" data-name="Diseño 01"><path class="cls-1" d="M9.68,95.78h19V86.22h9.62V76.64c.6,0,1.09,0,1.58,0l31.87,0h4.9l0,0c0,3.23.09,6.47.13,9.7a4.83,4.83,0,0,0-.73-.12H48.35a1.38,1.38,0,0,0-.36.12v9.53H67.15v9.58H57.54v9.44h9.58v-9.48h9.53c0-1,0-2,0-2.88q0-8.11.07-16.23l9.53,0,0,0v19.08h9.61V95.87h9.59v19h19.07v-9.52H115V95.83h19.1l0,0v38.26h19.14v9.56h19.09v-9.43h-9.51v-9.61l0,0h9.57V115H182v-9.55h9.58V95.92h9.58v28.56h9.56V95.91h9.55v38.18h-9.42v9.55h9.27c.13.2.21.27.21.34l0,18.88,0,0h-9.61v-9.59h-9.53V134.16h-9.61v9.56h-9.44v9.57c3.79,0,7.48,0,11.16,0,2.64,0,5.28-.06,7.92-.09v19.24h19.11l0,0V182h9.5v9.59h-9.37v19.19h9.47l0,0v19.21h9.64v6.33c0,3.24,0,3.24-3.19,3.24H191.68V230h19V182.11h-9.53v1.42c0,5.46,0,10.92,0,16.38,0,1-.32,1.29-1.29,1.27-2.72-.05-5.44,0-8.27,0v9.48h-9.53v-9.42h-9.6v28.63h9.45v9.56h-19v-9.49h-9.51v-9.53h9.41v-9.63h-9.47V201.2h-19.2V173.71c0-.46-.06-.91-.09-1.37a4.41,4.41,0,0,0,.62.09h17.76a5,5,0,0,0,.8-.12V153.24h-9.5v-9.45h-9.54v9.41h9.58v9.69h-9.68v9.48H124.6v-9.51H115l0,0c0-4.07-.06-8.13-.07-12.19,0-2.34,0-4.69,0-7l0,0h9.51V124.56H95.86v-9.51H76.71v9.44l0,0c-.42,0-.84.08-1.25.08H38.39v19.25H48l0,0c0,2.68-.07,5.36-.1,8v1.46H38.35v9.52H28.84v-9.48h-9.6l0,0c0-.67-.1-1.33-.1-2V125.89c0-.4,0-.81.07-1.3h9.46V115h9.58v-9.56H19.18V115H9.69l0,0c0-3.68-.1-7.36-.11-11,0-2.76.06-5.51.1-8.27ZM191.54,162.9H162.91v28.61h28.63ZM143.76,182v9.51h9.56c0-3,0-5.87,0-8.75,0-.26-.55-.72-.85-.73C149.6,182,146.75,182,143.76,182Z"/><path class="cls-1" d="M0,67V11.86C0,8.33.06,4.8,0,1.28,0,.26.31,0,1.3,0Q33.67,0,66.06,0c.28,0,.57,0,.93.05V67ZM9.67,9.63V57.38H57.41V9.63Z"/><path class="cls-1" d="M.11,172.47H67v66.92H.11ZM57.4,229.89v-47.8H9.65v47.8Z"/><path class="cls-1" d="M172.52.06H239.4V67H172.52ZM229.9,9.64H182.15V57.39H229.9Z"/><path class="cls-1" d="M105.41,191.58v-9.47H86.27v19H76.74a9.36,9.36,0,0,1-.09-.94q0-18.43,0-36.87c0-.16,0-.33,0-.5l0,0h9.5v-9.46h9.6v9.52H115l0,0V182h9.47v19.11H115l0,0v-9.62h-9.61Z"/><path class="cls-1" d="M76.68,76.69V48h9.58l0,0V67h9.64V57.53h9.54V67H115V48h9.47V76.67h-9.52v9.54H86.22l0,0V76.64H76.64Z"/><path class="cls-1" d="M153.25,57.53h9.6V95.8l0,0h-9.55v9.55h-9.57V95.79H134.1l0,0V86.17h9.54V67.07h9.61V57.49Z"/><path class="cls-1" d="M86.26,48q0-13.64-.05-27.27c0-.46,0-.91-.06-1.38l0,0c1.62-.06,3.24-.14,4.87-.16s3.09,0,4.78,0v9.51h9.6V19.23H115l0-.05V28.8h9.61l0,0v9.63H95.75v9.52H86.22Z"/><path class="cls-1" d="M115,19.23V9.65h-9.54V.12h38.13V9.57H134.1V28.8l0,0h-9.61l0,0V19.18H115Z"/><path class="cls-1" d="M115,201.12v9.57h-9.44a4.89,4.89,0,0,0-.11.74c0,5.83,0,11.65,0,17.48a6.47,6.47,0,0,0,.11.87l0,0c-.7,0-1.4.13-2.11.14H87c-.2,0-.41,0-.71-.05v-9.48h9.47V191.58h9.63l0,0v9.62H115Z"/><path class="cls-1" d="M220.28,162.86h9.57V143.77h9.56V172.4H220.28l0,0v-9.62Z"/><path class="cls-1" d="M172.38,95.77q.06-8.56.1-17.12V76.76h19.05v9.42h-9.45v9.55h-9.73Z"/><path class="cls-1" d="M19.24,153.29v9.48H.09v-9.45H19.28Z"/><path class="cls-1" d="M153.38,19.31c0-2.6-.08-5.2-.09-7.8,0-3.77,0-7.54,0-11.4h9.5V19.28h-9.45Z"/><path class="cls-1" d="M9.69,115q0,6-.08,12.07c0,2.3,0,4.59,0,7H.12v-19H9.73Z"/><path class="cls-1" d="M230,105.44h9.43v19H230Z"/><path class="cls-1" d="M76.74,162.79H57.55v-9.44H76.69v9.48Z"/><path class="cls-1" d="M124.45,229.79v9.61h-19v-9.64l0,0c.49,0,1,.11,1.48.11l17.53-.07Z"/><path class="cls-1" d="M48,143.79V134.2H67v9.55H48Z"/><path class="cls-1" d="M143.67,28.75q0,9.6,0,19.2l0,0h-9.57V28.76l0,0h9.6Z"/><path class="cls-1" d="M124.49,229.82l.06-17.21c0-.58,0-1.15,0-1.8H134v19h-9.58Z"/><path class="cls-1" d="M115,143.67H95.85V134.2H115v9.51Z"/><path class="cls-1" d="M172.35,95.73v9.58h-9.47V95.77l0,0,9.54,0Z"/><path class="cls-1" d="M153.34,19.28v9.47h-9.67l0,0V19.3h9.68Z"/><path class="cls-1" d="M153.36,48v-9.6h9.43V48h-9.47Z"/><path class="cls-1" d="M153.32,48l-.07,9.55,0,0-9.61,0,0-9.62,0,0,9.68.06Z"/><path class="cls-1" d="M229.83,86.15h-9.4V76.7h9.4Z"/><path class="cls-1" d="M162.82,124.57h-9.46V115h9.43v9.59Z"/><path class="cls-1" d="M76.71,124.49h9.45V134H76.74v-9.56Z"/><path class="cls-1" d="M86.33,9.71V.1h9.41V9.68H86.29Z"/><path class="cls-1" d="M86.29,9.68q0,4.2-.07,8.41c0,.41-.06.82-.09,1.24,0,0,0,0,0,0l-6.64-.13c-.88,0-1.76,0-2.75,0V9.71h9.57Z"/><path class="cls-1" d="M229.88,210.74v-9.5h9.5v9.46h-9.54Z"/><path class="cls-1" d="M9.72,95.74H.06V86.31H9.67c0,3.14,0,6.31,0,9.47Z"/><path class="cls-1" d="M143.71,57.49V67.1h-9.5V57.49Z"/><path class="cls-1" d="M182,172.52v9.42h-9.47v-9.42Z"/><path class="cls-1" d="M19.17,47.83V36.52c0-5.33,0-10.65,0-16,0-1.11.33-1.41,1.43-1.4,8.68,0,17.36,0,26.05,0h1.29v1.31q0,13,0,26.07c0,.84,0,1.4-1.16,1.39-9,0-18,0-26.95,0C19.65,47.91,19.49,47.87,19.17,47.83Z"/><path class="cls-1" d="M19.25,191.67h28.6v28.57H19.25Z"/><path class="cls-1" d="M191.68,19.23h28.57V47.82H191.68Z"/></g></g></svg>