<svg xmlns="http://www.w3.org/2000/svg" viewBox="0 0 62 62"><defs><style>.cls-1{fill:none;stroke:#fff;stroke-miterlimit:10;stroke-width:2px;}.cls-2{fill:#fff;}</style></defs><title>icon-Comunidad</title><g id="Camada_2" data-name="Camada 2"><g id="Diseño_01" data-name="Diseño 01"><circle class="cls-1" cx="31" cy="31" r="30"/><path class="cls-2" d="M54,37.07a11.32,11.32,0,0,0-1.78-3.94,12.58,12.58,0,0,0-4.2-3.78c-.71-.39-1.45-.71-2.23-1.1a.76.76,0,0,0,.16-.11,6.85,6.85,0,0,0,1.6-1.95,7.16,7.16,0,0,0-5.82-10.51,7.53,7.53,0,0,0-2.24.16,9,9,0,0,1-.41,7.89A9.4,9.4,0,0,1,38,25.34c.44.21.87.42,1.28.65A15.45,15.45,0,0,1,44.4,30.6a13.84,13.84,0,0,1,2.18,4.85,9.9,9.9,0,0,1,.21,4.91,4.32,4.32,0,0,1-2.92,3.18,5.42,5.42,0,0,1-3.32,2.89c-.32.13-.65.22-1,.32a33.6,33.6,0,0,0,4.81-.1,19.55,19.55,0,0,0,4.91-1,3.79,3.79,0,0,0,2.49-2.27.43.43,0,0,1,.25-.21,2.92,2.92,0,0,0,2.18-2.24A7.92,7.92,0,0,0,54,37.07Z"/><path class="cls-2" d="M20,45.59a5.78,5.78,0,0,1-1.57-2.08,5.38,5.38,0,0,1-2.53-1.79,4.87,4.87,0,0,1-.81-3.61,15.8,15.8,0,0,1,2.77-7.34A16.58,16.58,0,0,1,23,26l1-.54a8.62,8.62,0,0,1-2.06-3.87,8.86,8.86,0,0,1,.41-5.7,7.44,7.44,0,0,0-1.15-.18,7.08,7.08,0,0,0-6,2.33,7,7,0,0,0,.62,10.16l.14.15c-.65.35-1.28.65-1.87,1a13.45,13.45,0,0,0-4.25,3.94,13,13,0,0,0-2.27,6,3.4,3.4,0,0,0,.54,2.54A3.87,3.87,0,0,0,10,43.14a.5.5,0,0,1,.35.34,4,4,0,0,0,1.19,1.6,4.63,4.63,0,0,0,1.73.87,20.43,20.43,0,0,0,5.54.79c1.14,0,2.28.07,3.42,0A6.13,6.13,0,0,1,20,45.59Z"/><path class="cls-2" d="M42.76,31.75a13.43,13.43,0,0,0-4.47-4c-.52-.29-1.07-.55-1.65-.83-.28-.13-.56-.26-.85-.41l-1.54-.75,1.42-1,.08-.06a6.74,6.74,0,0,0,1.61-1.95,7.18,7.18,0,0,0-5.83-10.54l-.64,0a7.09,7.09,0,0,0-5.39,2.36,7,7,0,0,0,.62,10.18,1.43,1.43,0,0,1,.25.27l.82.94-1.09.61-.71.37c-.48.25-.94.49-1.39.75a14.45,14.45,0,0,0-4.54,4.22A13.92,13.92,0,0,0,17,38.33a2.89,2.89,0,0,0,.42,2.19,3.45,3.45,0,0,0,1.73,1.15,1.59,1.59,0,0,1,1,1,3.62,3.62,0,0,0,1.08,1.43,4.21,4.21,0,0,0,1.62.78,22.93,22.93,0,0,0,6.07.87c.7,0,1.54,0,2.39,0a29.06,29.06,0,0,0,3.11-.15,21.49,21.49,0,0,0,5.36-1.08,3.34,3.34,0,0,0,2.27-2,1.44,1.44,0,0,1,1-.87,2.34,2.34,0,0,0,1.78-1.85,8,8,0,0,0-.21-3.93A11.85,11.85,0,0,0,42.76,31.75Z"/></g></g></svg>