<svg xmlns="http://www.w3.org/2000/svg" viewBox="0 0 100 100"><defs><style>.cls-1{fill:#fff;}</style></defs><title>icon-volleyball</title><g id="Camada_2" data-name="Camada 2"><g id="Diseño_01" data-name="Diseño 01"><path class="cls-1" d="M64.65,32.81c.95,1.17,1.91,2.31,2.82,3.48a62.44,62.44,0,0,1,10.4,18.52,40.67,40.67,0,0,1-2.1,31.89c-1.45,3-3.32,5.78-5,8.65a1.13,1.13,0,0,1-.45.39A49.73,49.73,0,0,1,53.12,100l-.32,0c.14-.25.26-.48.39-.69a55.07,55.07,0,0,0,7.2-17A36.14,36.14,0,0,0,56,55.67c-1.07-1.86-2.36-3.59-3.52-5.4a1.25,1.25,0,0,1-.18-1c2.45-5.54,5.48-10.7,10.12-14.74.46-.39.93-.77,1.4-1.15Z"/><path class="cls-1" d="M92,22.9c-3.22,0-6.25-.17-9.25,0-7.45.5-14.41,2.54-20.51,7A38.8,38.8,0,0,0,51,43.37c-.77,1.43-1.42,2.92-2.16,4.37a1,1,0,0,1-.64.52A48.24,48.24,0,0,1,28.9,45.89l-.59-.23c-.07,0-.13-.08-.3-.18.63-1.61,1.24-3.25,1.91-4.86A61.92,61.92,0,0,1,39.76,24,41.84,41.84,0,0,1,64.3,9.85,64.12,64.12,0,0,1,77.78,8.77a1.44,1.44,0,0,1,.74.2A50.36,50.36,0,0,1,92,22.9Z"/><path class="cls-1" d="M5.1,27.79c1,1.81,1.94,3.65,3,5.41,6.17,10,15.1,16,26.66,18.08A62,62,0,0,0,48.45,52a1.23,1.23,0,0,1,.91.36,38.25,38.25,0,0,1,7.77,17.09c0,.3.08.61.13,1-2,.18-3.86.4-5.77.53a76.28,76.28,0,0,1-22.66-1.3C16.12,66.84,6.74,59.67.7,48.11a5.76,5.76,0,0,1-.6-3.58A50.11,50.11,0,0,1,4.82,28.21,3.84,3.84,0,0,1,5,27.86S5.08,27.81,5.1,27.79Z"/><path class="cls-1" d="M8.77,78.61A49.72,49.72,0,0,1,0,54.34a5.76,5.76,0,0,1,.4.48,42.76,42.76,0,0,0,21.65,16.8A62.71,62.71,0,0,0,40,74.94a106,106,0,0,0,17-.69l.63,0c-.09,1.36-.11,2.69-.27,4a40.11,40.11,0,0,1-3.08,11.1,1,1,0,0,1-.89.72,63.55,63.55,0,0,1-26.7-2.65,59.68,59.68,0,0,1-13.94-6.7c-1-.65-2-1.32-3-2C9.54,78.61,9.25,78.66,8.77,78.61Z"/><path class="cls-1" d="M67.89,30.73c1.07-.49,2.14-1,3.26-1.48A37.61,37.61,0,0,1,82.7,26.66a1.13,1.13,0,0,1,.83.37A53.81,53.81,0,0,1,94.75,51.45a64.1,64.1,0,0,1,.69,17.33c0,.42-.3,1,.45,1.17a49.16,49.16,0,0,1-18.4,21.7c.2-.4.4-.81.61-1.21a49.06,49.06,0,0,0,5.48-17,44.62,44.62,0,0,0-2.46-20.52A69.6,69.6,0,0,0,68.56,31.73c-.2-.24-.4-.49-.59-.74A1.13,1.13,0,0,1,67.89,30.73Z"/><path class="cls-1" d="M71.77,5c-3.16.5-6.32.84-9.42,1.51C50.16,9.11,40.66,15.74,33.6,26a78.33,78.33,0,0,0-8.75,17.39c-.06.17-.13.34-.23.61-.25-.12-.48-.22-.7-.34a33.92,33.92,0,0,1-11.21-10.2,1,1,0,0,1-.1-.82c3.84-8,8.61-15.26,15.39-21.1A56.37,56.37,0,0,1,46.69,1c.38-.13,1-.14.66-.91A49.85,49.85,0,0,1,71.77,5Z"/><path class="cls-1" d="M52.11,93.86c-1.3,2.1-2.45,4-3.65,5.86a1.08,1.08,0,0,1-.81.28,49.17,49.17,0,0,1-16.54-3.57,49.81,49.81,0,0,1-14-8.55,1.69,1.69,0,0,1-.43-.51A66,66,0,0,0,52.11,93.86Z"/><path class="cls-1" d="M33.86,2.63C23.15,9,15.68,18.17,10.09,29.31,9.47,28,8.9,26.93,8.39,25.8c-1.07-2.31-1.05-2.31.41-4.37A50,50,0,0,1,33.36,2.79Z"/><path class="cls-1" d="M99.41,57.65A59.47,59.47,0,0,0,87.77,26.42c.46,0,.76,0,1,0,1.63.09,3.26.16,4.88.31a1.18,1.18,0,0,1,.81.55,48.59,48.59,0,0,1,5.27,18.09,52,52,0,0,1-.31,12.09A.7.7,0,0,1,99.41,57.65Z"/></g></g></svg>