<svg xmlns="http://www.w3.org/2000/svg" viewBox="0 0 62 62"><defs><style>.cls-1{fill:none;stroke:#fff;stroke-miterlimit:10;stroke-width:2px;}.cls-2{fill:#fff;}</style></defs><title>icon-deportes</title><g id="Camada_2" data-name="Camada 2"><g id="Diseño_01" data-name="Diseño 01"><circle class="cls-1" cx="31" cy="31" r="30"/><path class="cls-2" d="M31.15,23.61a17.35,17.35,0,0,0,2.43.12,2.59,2.59,0,0,1,2.7,1.58c.92,1.7,1.87,3.38,2.74,5.1a1.53,1.53,0,0,1,0,1.22q-1.66,3.12-3.47,6.18a1.33,1.33,0,0,1-1,.57c-2.21.12-4.43.19-6.64.19A1.54,1.54,0,0,1,26.81,38c-1.26-2.11-2.46-4.26-3.63-6.42a1.39,1.39,0,0,1,0-1.13c1.1-2,2.22-4,3.42-6a1.82,1.82,0,0,1,1.19-.66C28.86,23.67,30,23.67,31.15,23.61Z"/><path class="cls-2" d="M22.32,44.68c-.74-.1-1.49-.15-2.22-.3A5.45,5.45,0,0,1,16.25,42c-.61-1-1.27-2-1.85-3-1.56-2.82-.63-5.35,1-7.75a1.3,1.3,0,0,1,1-.42c1.68.18,3.35.41,5,.69a1.32,1.32,0,0,1,.81.58c1.22,2.1,2.38,4.23,3.6,6.34a1.17,1.17,0,0,1,.1,1.27,28.41,28.41,0,0,0-1.67,3.75C23.94,44.44,23.41,44.88,22.32,44.68Z"/><path class="cls-2" d="M31,12.54c.47,0,.94,0,1.41,0,3.27.14,5,2.32,6.46,4.86a1,1,0,0,1-.13.9c-1.08,1.42-2.19,2.8-3.33,4.17a1.25,1.25,0,0,1-.86.34q-3.51,0-7,0a1.35,1.35,0,0,1-.92-.43q-1.61-1.95-3.08-4a1.16,1.16,0,0,1-.1-1.06,23,23,0,0,1,3.09-3.82C27.77,12.41,29.48,12.57,31,12.54Z"/><path class="cls-2" d="M39.79,44.83c-1.49.08-1.47.07-2-1.34s-1.06-2.67-1.53-4a1.46,1.46,0,0,1,.14-1.06c1.16-2.14,2.35-4.25,3.57-6.35a1.25,1.25,0,0,1,.77-.61c1.64-.25,3.28-.45,4.93-.59a1.13,1.13,0,0,1,.87.47c1.64,2.54,2.22,5.22.85,8.06-.44.92-1.06,1.76-1.57,2.64a5.71,5.71,0,0,1-5,2.76Z"/><path class="cls-2" d="M21.8,30.49c-1.91-.26-3.58-.46-5.24-.75-.3-.06-.78-.53-.77-.8,0-2,.16-4,.33-6a2.15,2.15,0,0,1,.67-1.17,12.36,12.36,0,0,1,4.78-3.18,1,1,0,0,1,1.27.4c.94,1.28,1.92,2.54,2.91,3.78a.76.76,0,0,1,.06,1.05c-1.18,2-2.29,4-3.45,6A3.7,3.7,0,0,1,21.8,30.49Z"/><path class="cls-2" d="M36.06,23.22c1.13-1.38,2.29-2.84,3.5-4.26a1.05,1.05,0,0,1,.89-.18A11.33,11.33,0,0,1,45.64,22a2.76,2.76,0,0,1,.69,1.57c0,1.8-.07,3.61-.13,5.41a.81.81,0,0,1-.83.9c-1.59.15-3.17.38-4.75.51a1,1,0,0,1-.73-.49c-.62-1.12-1.14-2.29-1.77-3.4S36.8,24.39,36.06,23.22Z"/><path class="cls-2" d="M30.47,48.38a21.39,21.39,0,0,1-3.33-1.58c-3.17-2.14-2.6-1.37-1.39-4.46.35-.9.6-2.06,1.29-2.53s1.82-.09,2.76-.14c1.53-.06,3.06-.13,4.58-.27.54,0,.86,0,1.06.59.51,1.43,1.06,2.86,1.62,4.28a1.11,1.11,0,0,1-.39,1.45A10.91,10.91,0,0,1,30.47,48.38Z"/><path class="cls-2" d="M49.32,35.87c-.42-1.35-.76-2.68-1.26-3.94A11,11,0,0,1,47.29,28c0-1.74-.12-3.48,0-5.22,0-.32.63-.7,1-.89a.93.93,0,0,1,.86.32,23.12,23.12,0,0,1,1.21,3.32A19.54,19.54,0,0,1,50.69,34,2.16,2.16,0,0,1,49.32,35.87Z"/><path class="cls-2" d="M12.61,35.64a2.09,2.09,0,0,1-1.53-1.86,21.93,21.93,0,0,1,1.84-11.13c.21-.44.5-.84.78-1.3a5.14,5.14,0,0,1,1.06.58,1,1,0,0,1,.38.79A18.79,18.79,0,0,0,15,29.77a.71.71,0,0,1-.1.52A10.77,10.77,0,0,0,12.61,35.64Z"/><path class="cls-2" d="M17.51,44.54a13.39,13.39,0,0,0,6.23,1.08c.25,0,.51.31.77.47,1.56.95,3.08,2,4.71,2.81,1.23.63,1.31.56,1,2.05a13,13,0,0,1-5.31-.71A19.88,19.88,0,0,1,18,46.52,1.66,1.66,0,0,1,17.51,44.54Z"/><path class="cls-2" d="M26,12.6a12.52,12.52,0,0,0-3.59,4.61.66.66,0,0,1-.42.33c-2.41.49-4.19,2-5.92,3.6a1.88,1.88,0,0,1-.23.16c-1.7-.69-1.83-1-.79-2.43a18.45,18.45,0,0,1,9.39-6.67,4.39,4.39,0,0,1,1.48.05Z"/><path class="cls-2" d="M36.36,12.43A4.76,4.76,0,0,1,38,12.36a18.66,18.66,0,0,1,9.48,7.29,4.73,4.73,0,0,1,.36.66,3.59,3.59,0,0,1,.14.43c-1.24.9-1.23.89-2.3-.08a13.91,13.91,0,0,0-5-2.86,1.22,1.22,0,0,1-.71-.5,12.64,12.64,0,0,0-3.36-4.22c-.11-.09-.2-.21-.31-.32Z"/><path class="cls-2" d="M31.36,49.37a12.74,12.74,0,0,0,6-3,2,2,0,0,1,1-.47c1.94-.23,3.89-.4,6-.61-.18.4-.27,1.07-.65,1.37-3.51,2.81-7.42,4.58-12,4.32a1.18,1.18,0,0,1-.31-.08Z"/><path class="cls-2" d="M16.29,44.7c-1.89-1.6-4.3-6-4.51-8.5.43.47.83.72.93,1a17.56,17.56,0,0,0,3.39,6.09,4.11,4.11,0,0,1,.48,1.24Z"/><path class="cls-2" d="M50.12,36.84A18.33,18.33,0,0,1,45.47,45l-.27-.11a3,3,0,0,1,.37-1,14.57,14.57,0,0,0,3.51-6.49c.06-.32.53-.56.82-.83Z"/><path class="cls-2" d="M35.81,11.86a3.22,3.22,0,0,1-1.05.11,15.16,15.16,0,0,0-7.15-.07,1.41,1.41,0,0,1-1-.27,17.75,17.75,0,0,1,9.18-.05Z"/></g></g></svg>