<svg xmlns="http://www.w3.org/2000/svg" width="54.619" height="54.619" viewBox="0 0 54.619 54.619">
  <g id="outline-confirmation_number-24px" opacity="0.75">
    <g id="Bounding_Boxes">
      <rect id="Retângulo_204" data-name="Retângulo 204" width="54.619" height="54.619" fill="none"/>
    </g>
    <g id="Outline" transform="translate(4.552 9.103)">
      <g id="Grupo_342" data-name="Grupo 342">
        <path id="Caminho_3355" data-name="Caminho 3355" d="M47.516,17.655v-9.1A4.55,4.55,0,0,0,42.964,4H6.552A4.531,4.531,0,0,0,2.023,8.552v9.1A4.552,4.552,0,0,1,2,26.758v9.1a4.565,4.565,0,0,0,4.552,4.552H42.964a4.565,4.565,0,0,0,4.552-4.552v-9.1a4.552,4.552,0,0,1,0-9.1Zm-4.552-3.323a9.087,9.087,0,0,0,0,15.748v5.781H6.552V30.081A9.133,9.133,0,0,0,11.1,22.206a9.085,9.085,0,0,0-4.529-7.874L6.552,8.552H42.964Z" transform="translate(-2 -4)" fill="#2f455c"/>
        <rect id="Retângulo_205" data-name="Retângulo 205" width="4.552" height="4.552" transform="translate(20.482 25.034)" fill="#2f455c"/>
        <rect id="Retângulo_206" data-name="Retângulo 206" width="4.552" height="4.552" transform="translate(20.482 15.931)" fill="#2f455c"/>
        <rect id="Retângulo_207" data-name="Retângulo 207" width="4.552" height="4.552" transform="translate(20.482 6.827)" fill="#2f455c"/>
      </g>
    </g>
  </g>
</svg>
