<svg xmlns="http://www.w3.org/2000/svg" viewBox="0 0 120.66 124.21"><defs><style>.cls-1{fill:none;stroke:#fff;stroke-linecap:round;stroke-linejoin:round;stroke-width:2px;}.cls-2{fill:#fff;}</style></defs><title>escudo</title><g id="Camada_2" data-name="Camada 2"><g id="Diseño"><path class="cls-1" d="M1.09,11.14s-5,76.61,59.51,112.07c0,0,60.77-26.28,59-112.07,0,0-21.88,9.28-34.78-10.14A29.4,29.4,0,0,1,60.6,13.75,29.93,29.93,0,0,1,36.16,1S25.87,20.42,1.09,11.14Z"/><path class="cls-2" d="M109.54,34.94c-6.7,60.5-49,78.66-49,78.66-44.09-26.28-49-78.66-49-78.66L60.27,78.68Z"/><path class="cls-2" d="M10.65,20.48l49.85,46,49.81-46S92.4,26.74,82.09,11.92c0,0-5,9.92-21.35,9.92s-21.51-9.92-21.51-9.92S32.22,25.33,10.65,20.48Z"/></g></g></svg>