<svg xmlns="http://www.w3.org/2000/svg" viewBox="0 0 27.02 27.02"><defs><style>.cls-1{fill:#fff;}</style></defs><title>icon-twitter</title><g id="Camada_2" data-name="Camada 2"><g id="Capa_1" data-name="Capa 1"><path class="cls-1" d="M13.51,0A13.51,13.51,0,1,0,27,13.52,13.5,13.5,0,0,0,13.51,0Zm9,8.37A7.06,7.06,0,0,1,21,9.88a.32.32,0,0,0-.13.29A10.31,10.31,0,0,1,18.4,17.1a9.57,9.57,0,0,1-5.93,3.33,10.11,10.11,0,0,1-7.06-1.38l-.08,0A7.56,7.56,0,0,0,9,18.37a6.53,6.53,0,0,0,1.49-.89A3.61,3.61,0,0,1,9,17.1a3.49,3.49,0,0,1-1.69-1.89C7.21,15,7.21,15,7.42,15A3.1,3.1,0,0,0,8.73,15a3.77,3.77,0,0,1-.84-.33A3.56,3.56,0,0,1,6,11.6c0-.16,0-.18.17-.11a3.5,3.5,0,0,0,1.4.38c-.23-.2-.43-.37-.6-.54a3.64,3.64,0,0,1-.56-4c.09-.17.12-.17.24,0a10,10,0,0,0,6.19,3.45c.25,0,.53.06.79.1s.19-.05.17-.19a3.55,3.55,0,0,1,5.94-3.19.39.39,0,0,0,.39.1A6.93,6.93,0,0,0,22,6.81a.56.56,0,0,0,.15-.1,3.52,3.52,0,0,1-1.5,2,7.64,7.64,0,0,0,1.92-.5C22.56,8.25,22.49,8.3,22.46,8.37Z"/></g></g></svg>