<svg xmlns="http://www.w3.org/2000/svg" viewBox="0 0 27.02 27.03"><defs><style>.cls-1{fill:#fff;}</style></defs><title>icon-insta</title><g id="Camada_2" data-name="Camada 2"><g id="Capa_1" data-name="Capa 1"><path class="cls-1" d="M13.5,0A13.52,13.52,0,1,0,27,13.52,13.52,13.52,0,0,0,13.5,0Zm7.31,18.87a1.74,1.74,0,0,1-1.93,1.94H8.08A1.72,1.72,0,0,1,6.2,18.89V8.18A1.73,1.73,0,0,1,8.14,6.23H18.88a1.72,1.72,0,0,1,1.93,1.9Z"/><path class="cls-1" d="M18.14,12.38c-.23,0-.29,0-.24.31a4.49,4.49,0,0,1-.1,2.09,4.54,4.54,0,0,1-5.22,3.13A4.49,4.49,0,0,1,9.06,13c.08-.65.06-.62-.6-.66-.47,0-.61.09-.61.59,0,1.78,0,3.57,0,5.32,0,.68.18.87.85.87h9.55c.68,0,.85-.19.87-.87v-5C19.15,12.29,19.15,12.31,18.14,12.38Z"/><path class="cls-1" d="M13.47,16.34a2.83,2.83,0,0,0,0-5.66,2.83,2.83,0,0,0,0,5.66Z"/><path class="cls-1" d="M17.7,7.87c-1.41,0-1.41,0-1.41,1.43s0,1.43,1.43,1.43,1.43,0,1.43-1.41S19.15,7.87,17.7,7.87Z"/></g></g></svg>