<svg xmlns="http://www.w3.org/2000/svg" viewBox="0 0 27.02 26.94"><defs><style>.cls-1{fill:#fff;}</style></defs><title>icon-facebook</title><g id="Camada_2" data-name="Camada 2"><g id="Capa_1" data-name="Capa 1"><path class="cls-1" d="M13.53,0A13.51,13.51,0,0,0,10.6,26.7V16.52H8.36V13.28H10.6V12.16A7.3,7.3,0,0,1,11,9.31a3.06,3.06,0,0,1,1.5-1.54,5.48,5.48,0,0,1,2.79-.59,9.9,9.9,0,0,1,3.34.48l-.52,2.84a7,7,0,0,0-1.85-.26,1.57,1.57,0,0,0-1.22.43,2.15,2.15,0,0,0-.38,1.56v1h3v3.24h-3V26.94A13.49,13.49,0,0,0,13.53,0Z"/></g></g></svg>