<svg xmlns="http://www.w3.org/2000/svg" viewBox="0 0 267.82 390.34"><defs><style>.cls-1{fill:#fff;}.cls-2{fill:none;stroke:#fff;stroke-linecap:round;stroke-linejoin:round;stroke-width:3px;}</style></defs><title>Logo</title><g id="Camada_2" data-name="Camada 2"><g id="Diseño"><path class="cls-1" d="M30.23,311.54a20.58,20.58,0,0,1-1.44,8,15.14,15.14,0,0,1-4.09,5.71,16.8,16.8,0,0,1-6.37,3.39,28.88,28.88,0,0,1-8.25,1.11q-2.16,0-4.89-.18A32.75,32.75,0,0,1,0,328.86V294.27a30.65,30.65,0,0,1,5.24-.72c1.85-.1,3.5-.16,4.94-.16a29.88,29.88,0,0,1,8.17,1.06,16.76,16.76,0,0,1,6.35,3.29,14.69,14.69,0,0,1,4.09,5.65A20.94,20.94,0,0,1,30.23,311.54ZM6.48,324c.37,0,.87.06,1.49.08s1.45,0,2.52,0q6.53,0,9.74-3.31t3.21-9.28c0-4-1.05-7.15-3.13-9.3S15,299,10.59,299a38.68,38.68,0,0,0-4.11.15Z"/><path class="cls-1" d="M35.52,316.06a17,17,0,0,1,1-6.22,13.09,13.09,0,0,1,2.81-4.44,11.59,11.59,0,0,1,4-2.68,12.37,12.37,0,0,1,4.62-.9q5.55,0,8.66,3.45t3.11,10.28c0,.34,0,.73,0,1.16s0,.81-.08,1.15H42a7.08,7.08,0,0,0,2.28,5,8.68,8.68,0,0,0,5.89,1.78,19.62,19.62,0,0,0,4.14-.41,17.3,17.3,0,0,0,3-.88l.83,5.09a10.82,10.82,0,0,1-1.42.54,21,21,0,0,1-2,.52c-.77.15-1.61.28-2.5.38a24.38,24.38,0,0,1-2.72.16A16.53,16.53,0,0,1,43.18,329a11.45,11.45,0,0,1-4.32-2.93,12,12,0,0,1-2.52-4.42A18,18,0,0,1,35.52,316.06Zm18-2.77a8.14,8.14,0,0,0-.36-2.44,5.92,5.92,0,0,0-1.05-2,5.09,5.09,0,0,0-1.7-1.34,5.45,5.45,0,0,0-2.39-.48,5.57,5.57,0,0,0-2.52.54A5.9,5.9,0,0,0,43.72,309a6.52,6.52,0,0,0-1.16,2,11.05,11.05,0,0,0-.56,2.32Z"/><path class="cls-1" d="M77.31,289.49a17.29,17.29,0,0,1,3.81.38,20.77,20.77,0,0,1,2.46.7l-1.18,5.14a9.29,9.29,0,0,0-2-.67,11.53,11.53,0,0,0-2.49-.26,6.43,6.43,0,0,0-2.52.44,4.1,4.1,0,0,0-1.65,1.21,4.62,4.62,0,0,0-.87,1.87,10.68,10.68,0,0,0-.26,2.39v1.8h9.77v5.19H72.58v21.7H66.36V300.59q0-5.19,2.73-8.15C70.9,290.47,73.65,289.49,77.31,289.49Z"/><path class="cls-1" d="M84.92,316.06a17,17,0,0,1,1-6.22,13.09,13.09,0,0,1,2.81-4.44,11.59,11.59,0,0,1,4-2.68,12.37,12.37,0,0,1,4.62-.9q5.55,0,8.66,3.45t3.11,10.28c0,.34,0,.73,0,1.16s0,.81-.08,1.15H91.35a7.08,7.08,0,0,0,2.28,5,8.68,8.68,0,0,0,5.89,1.78,19.62,19.62,0,0,0,4.14-.41,17.3,17.3,0,0,0,3-.88l.83,5.09A10.82,10.82,0,0,1,106,329a21,21,0,0,1-2,.52c-.77.15-1.61.28-2.5.38a24.38,24.38,0,0,1-2.72.16A16.53,16.53,0,0,1,92.58,329a11.45,11.45,0,0,1-4.32-2.93,12,12,0,0,1-2.52-4.42A18.3,18.3,0,0,1,84.92,316.06Zm18-2.77a8.14,8.14,0,0,0-.36-2.44,5.92,5.92,0,0,0-1-2,5.09,5.09,0,0,0-1.7-1.34,6.15,6.15,0,0,0-4.9.06A5.82,5.82,0,0,0,93.12,309,6.52,6.52,0,0,0,92,311a11.05,11.05,0,0,0-.56,2.32Z"/><path class="cls-1" d="M115.76,303.37a41.6,41.6,0,0,1,11.06-1.44,14.69,14.69,0,0,1,5.5.9,8.64,8.64,0,0,1,3.52,2.52,9.68,9.68,0,0,1,1.85,3.9,21.86,21.86,0,0,1,.54,5v15.12H132V315.24a21.17,21.17,0,0,0-.28-3.67,6.51,6.51,0,0,0-.93-2.47,3.65,3.65,0,0,0-1.75-1.39,7.34,7.34,0,0,0-2.7-.44,19.26,19.26,0,0,0-2.46.16c-.86.1-1.49.19-1.91.25v21.7h-6.22Z"/><path class="cls-1" d="M152.57,324.91a8.09,8.09,0,0,0,3.6-.6,2.1,2.1,0,0,0,1.13-2,2.63,2.63,0,0,0-1.21-2.21,17.91,17.91,0,0,0-4-1.9,31.66,31.66,0,0,1-3.11-1.31,10.16,10.16,0,0,1-2.44-1.62,6.57,6.57,0,0,1-1.62-2.23,7.75,7.75,0,0,1-.59-3.22,7,7,0,0,1,2.72-5.83,11.71,11.71,0,0,1,7.4-2.14,22.9,22.9,0,0,1,4.53.44,22.52,22.52,0,0,1,3.23.85l-1.13,5a15.24,15.24,0,0,0-2.62-.85,15.62,15.62,0,0,0-3.7-.39,6.37,6.37,0,0,0-3.08.65,2.1,2.1,0,0,0-1.19,2,2.94,2.94,0,0,0,.23,1.19,2.59,2.59,0,0,0,.8.95,8.51,8.51,0,0,0,1.49.87,24.12,24.12,0,0,0,2.26.9,34.81,34.81,0,0,1,3.76,1.62,10.06,10.06,0,0,1,2.54,1.8,6.16,6.16,0,0,1,1.47,2.29,9.3,9.3,0,0,1,.46,3.08,6.66,6.66,0,0,1-2.85,5.84c-1.91,1.32-4.62,2-8.15,2a22,22,0,0,1-5.71-.6,28.24,28.24,0,0,1-3-.95l1.08-5.19a26.89,26.89,0,0,0,3.31,1.08A17.25,17.25,0,0,0,152.57,324.91Z"/><path class="cls-1" d="M193.64,315.91a17.57,17.57,0,0,1-.92,5.81,12.72,12.72,0,0,1-2.63,4.47,11.9,11.9,0,0,1-4.08,2.88,13.32,13.32,0,0,1-5.27,1,13.06,13.06,0,0,1-5.24-1,12.05,12.05,0,0,1-4.07-2.88,13,13,0,0,1-2.64-4.47,16.82,16.82,0,0,1-.95-5.81,16.57,16.57,0,0,1,.95-5.78,12.89,12.89,0,0,1,2.67-4.45,11.88,11.88,0,0,1,4.09-2.85,13.09,13.09,0,0,1,5.19-1,13.38,13.38,0,0,1,5.22,1,11.56,11.56,0,0,1,4.08,2.85,13.17,13.17,0,0,1,2.65,4.45A16.81,16.81,0,0,1,193.64,315.91Zm-6.37,0a10.49,10.49,0,0,0-1.73-6.35,6.1,6.1,0,0,0-9.61,0,10.49,10.49,0,0,0-1.72,6.35,10.66,10.66,0,0,0,1.72,6.42,6.06,6.06,0,0,0,9.61,0A10.66,10.66,0,0,0,187.27,315.91Z"/><path class="cls-1" d="M215.39,308.1a16.75,16.75,0,0,0-2.14-.54,15.54,15.54,0,0,0-3.16-.29,12.15,12.15,0,0,0-2.18.21,14.48,14.48,0,0,0-1.62.36v21.54h-6.22v-25.6a33.16,33.16,0,0,1,4.49-1.26,27.71,27.71,0,0,1,6-.59c.41,0,.89,0,1.44.07s1.1.12,1.65.21,1.08.19,1.59.31.93.23,1.23.33Z"/><path class="cls-1" d="M219.29,316.06a16.78,16.78,0,0,1,1.06-6.22,12.92,12.92,0,0,1,2.8-4.44,11.59,11.59,0,0,1,4-2.68,12.41,12.41,0,0,1,4.62-.9q5.55,0,8.67,3.45t3.11,10.28c0,.34,0,.73,0,1.16s0,.81-.08,1.15H225.72a7.05,7.05,0,0,0,2.29,5,8.63,8.63,0,0,0,5.88,1.78,19.62,19.62,0,0,0,4.14-.41,17.45,17.45,0,0,0,3-.88l.82,5.09a10.29,10.29,0,0,1-1.42.54,21,21,0,0,1-2,.52c-.77.15-1.6.28-2.5.38a24.24,24.24,0,0,1-2.72.16A16.57,16.57,0,0,1,227,329a11.45,11.45,0,0,1-4.32-2.93,11.85,11.85,0,0,1-2.51-4.42A18,18,0,0,1,219.29,316.06Zm18.05-2.77a8.14,8.14,0,0,0-.36-2.44,5.76,5.76,0,0,0-1.06-2,5.15,5.15,0,0,0-1.69-1.34,5.51,5.51,0,0,0-2.39-.48,5.57,5.57,0,0,0-2.52.54,5.82,5.82,0,0,0-1.83,1.41,6.3,6.3,0,0,0-1.15,2,10.49,10.49,0,0,0-.57,2.32Z"/><path class="cls-1" d="M256.87,324.91a8.12,8.12,0,0,0,3.6-.6,2.1,2.1,0,0,0,1.13-2,2.63,2.63,0,0,0-1.21-2.21,18.14,18.14,0,0,0-4-1.9,31.66,31.66,0,0,1-3.11-1.31,10.43,10.43,0,0,1-2.45-1.62,6.68,6.68,0,0,1-1.61-2.23,7.75,7.75,0,0,1-.6-3.22,7,7,0,0,1,2.73-5.83,11.69,11.69,0,0,1,7.4-2.14,22.72,22.72,0,0,1,4.52.44,22.36,22.36,0,0,1,3.24.85l-1.13,5a15.24,15.24,0,0,0-2.62-.85,15.68,15.68,0,0,0-3.7-.39,6.37,6.37,0,0,0-3.08.65,2.1,2.1,0,0,0-1.19,2,2.94,2.94,0,0,0,.23,1.19,2.59,2.59,0,0,0,.8.95,8.16,8.16,0,0,0,1.49.87,24.12,24.12,0,0,0,2.26.9,34.81,34.81,0,0,1,3.76,1.62,10.24,10.24,0,0,1,2.54,1.8,6.16,6.16,0,0,1,1.47,2.29,9.3,9.3,0,0,1,.46,3.08,6.66,6.66,0,0,1-2.85,5.84c-1.91,1.32-4.62,2-8.15,2a22,22,0,0,1-5.71-.6,28.24,28.24,0,0,1-3-.95l1.08-5.19a26.89,26.89,0,0,0,3.31,1.08A17.25,17.25,0,0,0,256.87,324.91Z"/><path class="cls-1" d="M59.51,357.23l4-.68v32.6c-.91.25-2.08.51-3.51.77a28.81,28.81,0,0,1-4.93.38,12.6,12.6,0,0,1-4.63-.81,10,10,0,0,1-3.51-2.31,10.23,10.23,0,0,1-2.25-3.67,14,14,0,0,1-.79-4.86,16,16,0,0,1,.66-4.71,10.83,10.83,0,0,1,1.95-3.69,9.12,9.12,0,0,1,3.15-2.4,10.09,10.09,0,0,1,4.26-.85,10.45,10.45,0,0,1,3.41.51,10.32,10.32,0,0,1,2.21,1Zm0,15a8.55,8.55,0,0,0-5.1-1.72,6.51,6.51,0,0,0-2.94.62,5.52,5.52,0,0,0-2,1.72,7.26,7.26,0,0,0-1.11,2.59,14.3,14.3,0,0,0-.34,3.21,8.65,8.65,0,0,0,1.92,6,6.63,6.63,0,0,0,5.14,2.12,20.39,20.39,0,0,0,2.72-.15,13.81,13.81,0,0,0,1.7-.32Z"/><path class="cls-1" d="M69.1,378.69a14.23,14.23,0,0,1,.86-5.16,10.79,10.79,0,0,1,2.27-3.66,9.34,9.34,0,0,1,3.25-2.19,10.3,10.3,0,0,1,3.77-.72,8.58,8.58,0,0,1,6.9,2.8q2.4,2.81,2.4,8.55V379c0,.27,0,.52,0,.75H73.26a8.16,8.16,0,0,0,2,5.27q1.76,1.8,5.48,1.8a14.29,14.29,0,0,0,3.54-.37,12.74,12.74,0,0,0,2.16-.7l.56,3.34a11.58,11.58,0,0,1-2.55.81,17.91,17.91,0,0,1-4.14.43,13,13,0,0,1-5-.88A9.3,9.3,0,0,1,71.8,387a9.84,9.84,0,0,1-2-3.66A15.23,15.23,0,0,1,69.1,378.69Zm15.29-2.18A6.69,6.69,0,0,0,83,372.07a4.64,4.64,0,0,0-3.83-1.73,5.23,5.23,0,0,0-2.42.54A5.67,5.67,0,0,0,75,372.27a6.49,6.49,0,0,0-1.13,2,10,10,0,0,0-.54,2.27Z"/><path class="cls-1" d="M104.44,389.79V360.1h17.91v3.56H108.6v8.95h12.21v3.51H108.6v13.67Z"/><path class="cls-1" d="M133.87,390.22q-3.69-.09-5.23-1.59A6.28,6.28,0,0,1,127.1,384V357.23l4-.68v26.77a6.22,6.22,0,0,0,.17,1.63,2.26,2.26,0,0,0,.55,1,2.49,2.49,0,0,0,1,.57,11,11,0,0,0,1.59.33Z"/><path class="cls-1" d="M158.54,378.65a14,14,0,0,1-.77,4.8,10.85,10.85,0,0,1-2.16,3.68,9.6,9.6,0,0,1-3.32,2.38,11,11,0,0,1-8.4,0,9.6,9.6,0,0,1-3.32-2.38,11,11,0,0,1-2.16-3.68,15.28,15.28,0,0,1,0-9.58,11,11,0,0,1,2.16-3.7,9.6,9.6,0,0,1,3.32-2.38,11,11,0,0,1,8.4,0,9.6,9.6,0,0,1,3.32,2.38,10.85,10.85,0,0,1,2.16,3.7A14.06,14.06,0,0,1,158.54,378.65Zm-4.15,0a9.67,9.67,0,0,0-1.69-6,5.92,5.92,0,0,0-9.21,0,11.37,11.37,0,0,0,0,12,5.92,5.92,0,0,0,9.21,0A9.67,9.67,0,0,0,154.39,378.65Z"/><path class="cls-1" d="M172.38,367a10.55,10.55,0,0,1,1.18.07c.44,0,.88.1,1.3.17l1.18.21c.36.07.62.14.8.19l-.69,3.47a13.22,13.22,0,0,0-1.56-.4,13.53,13.53,0,0,0-2.81-.24,10.32,10.32,0,0,0-2.21.24c-.72.15-1.2.26-1.43.32v18.72h-4V368.45a27.41,27.41,0,0,1,3.51-1A22.55,22.55,0,0,1,172.38,367Z"/><path class="cls-1" d="M182.66,363.49a2.57,2.57,0,0,1-1.82-.71,2.79,2.79,0,0,1,0-3.81,2.69,2.69,0,0,1,3.64,0,2.79,2.79,0,0,1,0,3.81A2.57,2.57,0,0,1,182.66,363.49Zm2,26.3h-4V367.51h4Z"/><path class="cls-1" d="M205.92,357.23l4-.68v32.6c-.92.25-2.09.51-3.52.77a28.77,28.77,0,0,1-4.92.38,12.53,12.53,0,0,1-4.63-.81,10,10,0,0,1-3.51-2.31,10.23,10.23,0,0,1-2.25-3.67,14,14,0,0,1-.79-4.86,16,16,0,0,1,.66-4.71,10.5,10.5,0,0,1,2-3.69,9,9,0,0,1,3.15-2.4,10.09,10.09,0,0,1,4.26-.85,10.5,10.5,0,0,1,3.41.51,10.2,10.2,0,0,1,2.2,1Zm0,15a7.69,7.69,0,0,0-2.1-1.16,7.89,7.89,0,0,0-3-.56,6.43,6.43,0,0,0-2.93.62,5.43,5.43,0,0,0-2,1.72,7.1,7.1,0,0,0-1.12,2.59,14.3,14.3,0,0,0-.34,3.21,8.61,8.61,0,0,0,1.93,6,6.62,6.62,0,0,0,5.14,2.12,20.6,20.6,0,0,0,2.72-.15,13.59,13.59,0,0,0,1.69-.32Z"/><path class="cls-1" d="M224,367a11.36,11.36,0,0,1,4,.62,6.58,6.58,0,0,1,2.66,1.75,6.77,6.77,0,0,1,1.44,2.7,13.26,13.26,0,0,1,.42,3.45V389.4l-1.43.24c-.62.1-1.31.19-2.08.28s-1.61.16-2.51.23-1.79.11-2.67.11a14.45,14.45,0,0,1-3.47-.39,7.54,7.54,0,0,1-2.74-1.22,5.49,5.49,0,0,1-1.8-2.2,7.74,7.74,0,0,1-.65-3.3,6.33,6.33,0,0,1,.75-3.17,5.9,5.9,0,0,1,2-2.14,9,9,0,0,1,3-1.2,16.15,16.15,0,0,1,3.6-.39,10.79,10.79,0,0,1,1.24.07c.43,0,.83.1,1.22.17l1,.19.59.13v-1.12a9.08,9.08,0,0,0-.21-1.94,4.41,4.41,0,0,0-.77-1.72,3.91,3.91,0,0,0-1.52-1.2,6,6,0,0,0-2.51-.45,19.41,19.41,0,0,0-3.45.28,12.29,12.29,0,0,0-2.2.58l-.47-3.3a11.89,11.89,0,0,1,2.57-.66A21.68,21.68,0,0,1,224,367Zm.34,20c.94,0,1.78,0,2.5-.07a11,11,0,0,0,1.82-.23V380a5,5,0,0,0-1.39-.37,15.42,15.42,0,0,0-2.33-.15,16.28,16.28,0,0,0-1.91.13,6.05,6.05,0,0,0-1.84.54,3.89,3.89,0,0,0-1.39,1.11,2.92,2.92,0,0,0-.56,1.86,3.2,3.2,0,0,0,1.37,3A7.13,7.13,0,0,0,224.3,386.92Z"/><path class="cls-2" d="M31.77,19s-8.66,132.09,102.6,193.22c0,0,104.77-45.31,101.77-193.22,0,0-37.72,16-60-17.49a50.67,50.67,0,0,1-41.81,22c-28.4,0-42.14-22-42.14-22S74.49,35,31.77,19Z"/><path class="cls-1" d="M218.76,60c-11.56,104.31-84.54,135.63-84.54,135.63C58.19,150.34,49.68,60,49.68,60l84.11,75.42Z"/><path class="cls-1" d="M48.25,35.08l85.95,79.37,85.87-79.37s-30.86,10.8-48.65-14.75c0,0-8.59,17.11-36.8,17.11s-37.1-17.11-37.1-17.11S85.43,43.44,48.25,35.08Z"/></g></g></svg>